# xmcd CD database file
#
# Track frame offsets:
#	150
#	24835
#	45342
#	81219
#	104018
#
# Disc length: 1903 seconds
#
# Revision: 0
# Processed by: cddbd v1.5.2PL0 Copyright (c) Steve Scherf et al.
# Submitted via: CDex 1.70beta2
#
DISCID=30076d05
DTITLE=ジミー・スミス - ブルーノート・ベスト・ジャズ・コレクション 19
DYEAR=2012
DGENRE=Jazz
TTITLE0=ジャンピン・ザ・ブルース
TTITLE1=サマータイム
TTITLE2=ジョニーが凱旋する時
TTITLE3=今宵の君は
TTITLE4=ザ・チャンプ
EXTD=YEAR: 2012
EXTT0=
EXTT1=
EXTT2=
EXTT3=
EXTT4=
PLAYORDER=
